<svg width="321" height="194" viewBox="0 0 321 194" fill="none" xmlns="http://www.w3.org/2000/svg">
<g clip-path="url(#clip0_17_866)">
<path d="M237.785 169.655C238.13 172.788 239.401 175.655 240.757 178.416C240.801 178.51 240.848 178.603 240.895 178.697H254.984C255.269 178.611 255.55 178.517 255.831 178.416C257.422 177.855 258.924 177 260.279 175.884C265.463 171.562 267.457 163.396 266.556 156.079C265.996 151.533 264.272 146.891 260.915 144.443C259.091 143.158 256.916 142.717 254.824 143.208C254.771 143.219 254.717 143.233 254.663 143.246C253.792 143.441 252.967 143.847 252.241 144.437C251.516 145.027 250.906 145.789 250.453 146.671C248.853 149.961 249.806 154.037 250.592 157.699C251.377 161.361 251.803 165.745 249.525 168.446C249.859 167.316 249.927 166.104 249.722 164.934C249.517 163.764 249.046 162.679 248.358 161.789C247.67 160.899 246.79 160.238 245.808 159.872C244.826 159.506 243.778 159.45 242.771 159.709C242.606 159.749 242.443 159.796 242.283 159.852C241.896 159.983 241.523 160.163 241.171 160.39C238.486 162.126 237.398 166.124 237.785 169.655Z" fill="#57B793"/>
<path d="M246.139 178.416C245.748 178.522 245.357 178.614 244.963 178.697H247.093C247.372 178.61 247.65 178.517 247.925 178.416C248.53 178.197 249.126 177.946 249.712 177.663C252.091 176.545 254.203 174.783 255.871 172.525C256.672 171.419 257.327 170.182 257.813 168.853C258.34 167.351 258.675 165.768 258.807 164.154C259.049 160.817 258.856 157.458 258.235 154.187C257.651 150.817 256.707 147.542 255.427 144.44C255.273 144.068 255.113 143.699 254.949 143.332C254.938 143.301 254.921 143.275 254.899 143.253C254.877 143.232 254.852 143.216 254.824 143.208C254.768 143.196 254.71 143.209 254.663 143.246C254.606 143.284 254.564 143.345 254.545 143.418C254.527 143.49 254.533 143.569 254.562 143.636C255.883 146.616 256.883 149.771 257.543 153.031C258.221 156.229 258.52 159.52 258.429 162.811C258.38 165.872 257.555 168.849 256.055 171.371C254.596 173.643 252.677 175.465 250.468 176.676C249.085 177.442 247.633 178.025 246.139 178.416Z" fill="white"/>
<path d="M241.463 178.697H242.092C242.162 178.604 242.23 178.51 242.296 178.416C243.727 176.405 244.696 174.008 245.114 171.448C245.622 168.254 245.227 164.955 243.988 162.04C243.642 161.223 243.235 160.443 242.771 159.708C242.606 159.749 242.443 159.795 242.283 159.852C243.504 161.724 244.326 163.904 244.68 166.213C244.997 168.377 244.891 170.596 244.372 172.707C243.853 174.818 242.934 176.769 241.68 178.416C241.61 178.51 241.537 178.604 241.463 178.697Z" fill="white"/>
<path d="M126.762 112.979H82.6654L82.1979 97.2896C82.1777 96.6095 82.2851 95.9324 82.5126 95.3049C82.7402 94.6774 83.0826 94.1144 83.5162 93.6547C83.9498 93.195 84.4643 92.8495 85.0244 92.6419C85.5844 92.4343 86.1767 92.3697 86.7604 92.4524L112.422 96.0885H112.425C116.229 96.1003 119.874 97.8567 122.561 100.973C125.249 104.089 126.759 108.311 126.762 112.713V112.979Z" fill="#FAC443"/>
<path d="M107.108 57.3267H76.3529C75.9439 57.3265 75.5388 57.4197 75.1609 57.6007C74.783 57.7818 74.4396 58.0473 74.1504 58.382C73.8612 58.7167 73.6318 59.114 73.4753 59.5513C73.3188 59.9886 73.2384 60.4573 73.2385 60.9307V96.52C73.2384 96.9934 73.3188 97.462 73.4753 97.8994C73.6318 98.3367 73.8612 98.734 74.1504 99.0687C74.4396 99.4034 74.783 99.6689 75.1609 99.8499C75.5388 100.031 75.9439 100.124 76.3529 100.124H107.108C107.517 100.124 107.922 100.031 108.3 99.8499C108.678 99.6689 109.021 99.4034 109.31 99.0687C109.6 98.734 109.829 98.3367 109.986 97.8994C110.142 97.4621 110.222 96.9934 110.222 96.52V60.9307C110.222 60.4573 110.142 59.9886 109.986 59.5513C109.829 59.114 109.6 58.7166 109.31 58.3819C109.021 58.0473 108.678 57.7818 108.3 57.6007C107.922 57.4197 107.517 57.3265 107.108 57.3267Z" fill="#C4905F"/>
<path d="M100.181 83.9393L85.6606 87.2115C84.7993 87.4044 83.907 87.1941 83.1795 86.6267C82.452 86.0593 81.9487 85.1811 81.7801 84.1848L80.6638 77.5519C80.4971 76.5552 80.6788 75.5226 81.1692 74.6808C81.6595 73.8389 82.4184 73.2565 83.2794 73.0613L97.8002 69.7891C98.6615 69.5962 99.5538 69.8065 100.281 70.3739C101.009 70.9413 101.512 71.8195 101.681 72.8158L102.797 79.4487C102.964 80.4454 102.782 81.478 102.292 82.3198C101.801 83.1617 101.042 83.7441 100.181 83.9393Z" fill="#3F3D56"/>
<path d="M97.2762 76.1028L86.1945 78.6C85.9918 78.6457 85.7818 78.5963 85.6105 78.4628C85.4393 78.3292 85.3209 78.1224 85.2814 77.8879C85.242 77.6533 85.2846 77.4102 85.4001 77.212C85.5155 77.0139 85.6942 76.8769 85.8969 76.8312L96.9785 74.334C97.1812 74.2883 97.3913 74.3377 97.5625 74.4713C97.7338 74.6048 97.8521 74.8116 97.8916 75.0462C97.9311 75.2807 97.8884 75.5238 97.773 75.722C97.6576 75.9201 97.4789 76.0571 97.2762 76.1028Z" fill="white"/>
<path d="M95.1222 79.801L89.3903 81.0927C89.1876 81.1384 88.9775 81.089 88.8063 80.9554C88.635 80.8219 88.5167 80.6151 88.4772 80.3805C88.4377 80.1459 88.4804 79.9029 88.5958 79.7047C88.7112 79.5066 88.8899 79.3696 89.0926 79.3239L94.8245 78.0322C94.9249 78.0096 95.0281 78.0101 95.1283 78.0337C95.2285 78.0572 95.3237 78.1034 95.4085 78.1695C95.4933 78.2356 95.566 78.3204 95.6225 78.4191C95.6789 78.5177 95.7181 78.6283 95.7376 78.7444C95.7572 78.8605 95.7567 78.98 95.7364 79.0959C95.716 79.2119 95.6762 79.3221 95.619 79.4202C95.5619 79.5183 95.4886 79.6024 95.4033 79.6678C95.3181 79.7331 95.2225 79.7784 95.1222 79.801Z" fill="white"/>
<path d="M110.222 60.9307V65.6609H73.2385V60.9307C73.2384 60.4573 73.3188 59.9886 73.4753 59.5513C73.6318 59.114 73.8612 58.7167 74.1504 58.382C74.4396 58.0473 74.783 57.7818 75.1609 57.6007C75.5388 57.4197 75.9439 57.3265 76.3529 57.3267H107.108C107.517 57.3265 107.922 57.4197 108.3 57.6007C108.678 57.7818 109.021 58.0473 109.31 58.382C109.6 58.7167 109.829 59.114 109.986 59.5513C110.142 59.9886 110.222 60.4573 110.222 60.9307Z" fill="#B78153"/>
<path d="M184.076 67.1422C183.862 66.3446 183.5 65.6109 183.015 64.9928C182.53 64.3747 181.934 63.8871 181.268 63.5645C180.603 63.2419 179.884 63.0921 179.163 63.1256C178.442 63.1591 177.737 63.3751 177.096 63.7584L134.784 46.1914L132.92 58.4231L175.097 71.8446C175.725 73.0481 176.713 73.9432 177.873 74.3604C179.033 74.7776 180.285 74.6879 181.391 74.1082C182.498 73.5286 183.383 72.4993 183.877 71.2154C184.372 69.9315 184.443 68.4823 184.076 67.1422Z" fill="#FFB8B8"/>
<path opacity="0.2" d="M184.076 67.1422C183.862 66.3446 183.5 65.6109 183.015 64.9928C182.53 64.3747 181.934 63.8871 181.268 63.5645C180.603 63.2419 179.884 63.0921 179.163 63.1256C178.442 63.1591 177.737 63.3751 177.096 63.7584L134.784 46.1914L132.92 58.4231L175.097 71.8446C175.725 73.0481 176.713 73.9432 177.873 74.3604C179.033 74.7776 180.285 74.6879 181.391 74.1082C182.498 73.5286 183.383 72.4993 183.877 71.2154C184.372 69.9315 184.443 68.4823 184.076 67.1422Z" fill="black"/>
<path d="M142.294 48.42L138.298 60.4991C138.185 60.8427 138.008 61.154 137.781 61.4117C137.554 61.6694 137.282 61.8675 136.983 61.9924C136.684 62.1173 136.365 62.1661 136.048 62.1356C135.731 62.105 135.423 61.9958 135.146 61.8153L125.436 55.4907C123.92 54.8075 122.699 53.4566 122.043 51.7341C121.386 50.0115 121.346 48.0579 121.932 46.3016C122.518 44.5453 123.682 43.1295 125.169 42.3647C126.656 41.5999 128.344 41.5485 129.863 42.2217L140.707 45.0046C141.017 45.0844 141.309 45.2407 141.563 45.4628C141.816 45.6849 142.026 45.9677 142.176 46.2918C142.327 46.6159 142.415 46.9738 142.436 47.341C142.456 47.7083 142.407 48.0763 142.294 48.42Z" fill="#9C2DB7"/>
<path d="M187.406 78.3267L172.245 86.3013L174.235 94.973C178.079 111.719 179.099 129.164 177.24 146.356L188.325 149.035L197.514 121.921L194.298 91.0861L187.406 78.3267Z" fill="#FAC443"/>
<path d="M217.154 118.466C207.193 118.466 199.075 126.846 198.681 137.339H235.627C235.233 126.846 227.115 118.466 217.154 118.466Z" fill="#F3F4F6"/>
<path d="M209.4 120.274C208.881 72.9056 185.568 77.2634 185.568 77.2634C185.568 77.2634 186.004 92.0077 186.214 92.4662C201.07 124.992 176.552 163.124 145.343 156.109C144.755 155.976 144.19 155.842 143.647 155.706C139.693 154.751 136.202 152.088 133.883 148.26C131.565 144.432 130.594 139.725 131.168 135.098C134.242 106.53 118.951 107.035 118.951 107.035H96.5927L84.9814 94.9428C84.5716 94.5159 84.0776 94.2118 83.5427 94.0569C83.0078 93.9021 82.4482 93.9012 81.9129 94.0544C81.3777 94.2076 80.883 94.5102 80.4722 94.9358C80.0613 95.3614 79.7468 95.897 79.5562 96.4957L78.0624 101.187C78.0624 101.187 56.0099 103.846 57.8476 128.833H64.6654C64.649 129.543 64.6735 130.253 64.739 130.96L115.621 130.481C118.604 130.453 121.236 133.249 121.249 136.701C121.252 137.541 121.108 138.374 120.827 139.148C120.545 139.923 120.132 140.624 119.611 141.209C119.09 141.795 118.473 142.253 117.795 142.556C117.118 142.858 116.395 143 115.669 142.972L107.466 142.656C104.939 155.681 111.141 164.453 117.975 169.969C124.409 175.087 132.044 177.8 139.852 177.744H162.138C191.081 177.744 196.135 149.567 196.135 149.567C211.296 142.124 209.4 120.274 209.4 120.274Z" fill="#EDEEF0"/>
<path opacity="0.9" d="M212.44 185.012C224.112 185.012 233.574 174.063 233.574 160.557C233.574 147.05 224.112 136.101 212.44 136.101C200.769 136.101 191.307 147.05 191.307 160.557C191.307 174.063 200.769 185.012 212.44 185.012Z" fill="#0D0E10"/>
<path d="M212.67 170.126C217.11 170.126 220.71 165.961 220.71 160.822C220.71 155.684 217.11 151.519 212.67 151.519C208.23 151.519 204.63 155.684 204.63 160.822C204.63 165.961 208.23 170.126 212.67 170.126Z" fill="white"/>
<path d="M88.3951 181.822C100.067 181.822 109.529 170.873 109.529 157.367C109.529 143.86 100.067 132.911 88.3951 132.911C76.7233 132.911 67.2614 143.86 67.2614 157.367C67.2614 170.873 76.7233 181.822 88.3951 181.822Z" fill="#0D0E10"/>
<path d="M88.1654 166.936C92.6057 166.936 96.2054 162.652 96.2054 157.366C96.2054 152.081 92.6057 147.797 88.1654 147.797C83.725 147.797 80.1254 152.081 80.1254 157.366C80.1254 162.652 83.725 166.936 88.1654 166.936Z" fill="white"/>
<path d="M172.288 88.6577L166.833 71.5125C166.549 70.6189 166.419 69.6693 166.452 68.7178C166.485 67.7664 166.679 66.8318 167.024 65.9673C167.369 65.1028 167.858 64.3255 168.463 63.6796C169.068 63.0337 169.776 62.532 170.548 62.203L186.187 55.5408C187.546 54.9619 188.99 54.6982 190.437 54.765C191.883 54.8318 193.304 55.2277 194.619 55.93C195.933 56.6324 197.115 57.6275 198.098 58.8585C199.08 60.0895 199.843 61.5323 200.343 63.1046C200.794 64.5157 201.025 66.0086 201.024 67.5132C201.018 69.4237 200.644 71.3087 199.93 73.0312C199.216 74.7536 198.179 76.2703 196.894 77.4709C195.967 78.3321 194.924 79.0125 193.807 79.4853L172.288 88.6577Z" fill="#EDEEF0"/>
<path d="M200.794 67.5129C200.793 69.3845 200.429 71.232 199.729 72.9194C199.029 74.6067 198.012 76.0911 196.751 77.2633C194.816 76.6728 193.016 75.602 191.476 74.1251C189.935 72.6483 188.691 70.8009 187.829 68.7113C186.968 66.6218 186.51 64.3403 186.488 62.0253C186.466 59.7104 186.879 57.4176 187.7 55.3064C189.276 54.9098 190.909 54.9267 192.478 55.3558C194.047 55.7849 195.514 56.6153 196.77 57.786C198.026 58.9568 199.039 60.4381 199.735 62.1213C200.432 63.8045 200.793 65.6468 200.794 67.5129Z" fill="#FAC443"/>
<path d="M61.7528 132.288C65.305 132.288 68.1847 128.242 68.1847 123.25C68.1847 118.259 65.305 114.212 61.7528 114.212C58.2005 114.212 55.3208 118.259 55.3208 123.25C55.3208 128.242 58.2005 132.288 61.7528 132.288Z" fill="#FAC443"/>
<path d="M146.775 155.243H152.408L155.087 138.338L146.774 138.338L146.775 155.243Z" fill="#FFB8B8"/>
<path d="M145.338 153.115L156.431 153.114H156.431C157.359 153.114 158.278 153.326 159.136 153.737C159.994 154.148 160.773 154.75 161.43 155.51C162.086 156.27 162.607 157.171 162.962 158.164C163.317 159.156 163.5 160.22 163.5 161.294V161.56L145.339 161.561L145.338 153.115Z" fill="#28292B"/>
<path d="M153.313 148.305C153.247 148.305 153.181 148.301 153.115 148.294L145.32 147.637C145.005 147.603 144.701 147.486 144.431 147.294C144.161 147.103 143.933 146.842 143.764 146.533C143.594 146.223 143.489 145.872 143.455 145.508C143.422 145.144 143.461 144.775 143.57 144.432L154.002 117.31C154.077 117.068 154.107 116.811 154.092 116.555C154.076 116.299 154.015 116.049 153.912 115.822C153.809 115.592 153.666 115.39 153.491 115.228C153.316 115.067 153.113 114.95 152.896 114.886C147.991 113.403 135.405 109.452 124.51 104.829C119.842 102.848 116.902 99.9858 115.772 96.3214C114.282 91.4904 116.486 87.0846 116.581 86.8997L116.655 86.7549L126.907 87.8332L138.021 88.9271L162.377 104.041C164.417 105.318 165.968 107.438 166.718 109.978C167.469 112.518 167.366 115.293 166.428 117.749L155.199 146.887C155.037 147.309 154.772 147.667 154.437 147.919C154.103 148.17 153.712 148.304 153.313 148.305Z" fill="#202123"/>
<path d="M128.689 34.1745C134.921 34.1745 139.973 28.3284 139.973 21.1168C139.973 13.9052 134.921 8.05908 128.689 8.05908C122.457 8.05908 117.405 13.9052 117.405 21.1168C117.405 28.3284 122.457 34.1745 128.689 34.1745Z" fill="#FFB8B8"/>
<path d="M143.559 156.838H149.191L151.871 139.933L143.558 139.934L143.559 156.838Z" fill="#FFB8B8"/>
<path d="M142.122 154.71L153.214 154.709H153.215C154.143 154.709 155.062 154.921 155.92 155.332C156.778 155.743 157.557 156.345 158.213 157.105C158.87 157.864 159.391 158.766 159.746 159.759C160.101 160.751 160.284 161.815 160.284 162.889V163.155L142.123 163.156L142.122 154.71Z" fill="#28292B"/>
<path d="M150.097 149.899C150.031 149.899 149.965 149.896 149.899 149.888L142.104 149.232C141.789 149.198 141.485 149.081 141.215 148.889C140.945 148.698 140.717 148.437 140.547 148.127C140.378 147.818 140.273 147.467 140.239 147.103C140.206 146.739 140.245 146.37 140.354 146.026L150.786 118.905C150.861 118.663 150.891 118.406 150.876 118.15C150.86 117.894 150.799 117.644 150.696 117.417C150.593 117.187 150.45 116.984 150.275 116.823C150.099 116.662 149.897 116.545 149.68 116.481C144.775 114.997 132.189 111.046 121.294 106.423C116.626 104.443 113.686 101.58 112.556 97.9161C111.066 93.0851 113.27 88.6793 113.365 88.4945L113.439 88.3496L123.691 89.428L134.805 90.5219L159.161 105.635C161.201 106.912 162.752 109.032 163.502 111.573C164.253 114.113 164.15 116.887 163.212 119.343L151.983 148.481C151.821 148.903 151.556 149.262 151.221 149.514C150.887 149.765 150.496 149.899 150.097 149.899Z" fill="#28292B"/>
<path d="M132.169 41.5792L120.224 36.7944C120.224 36.7944 112.725 43.4612 116.328 59.9999C118.209 68.5345 117.661 77.5434 114.766 85.6891C114.417 86.6969 114.015 87.679 113.563 88.6297C113.563 88.6297 126.886 107.237 139.29 93.4145L134.467 66.5665C134.467 66.5665 142.047 48.7564 132.169 41.5792Z" fill="#8927A1"/>
<path d="M130.09 34.6188C128.484 31.8371 127.217 27.9799 128.985 25.3332C130.73 22.7206 134.173 23.1055 136.846 21.9494C140.569 20.3393 142.729 15.2777 142.055 10.7447C141.382 6.21172 138.237 2.45402 134.491 0.916489C130.745 -0.621041 126.521 -0.121 122.852 1.64956C118.337 3.82914 114.463 8.04539 112.838 13.3863C111.214 18.7272 112.082 25.1399 115.452 29.245C119.065 33.6461 124.735 34.8191 129.981 34.7479" fill="#2F2E41"/>
<path d="M119.594 10.89C117.57 12.7965 114.483 11.9497 112.31 10.2766C110.138 8.60349 108.375 6.22108 106.025 4.90929C101.881 2.59667 96.8713 4.13403 92.8385 6.69568C88.8057 9.25732 85.2307 12.7963 80.9709 14.8065C76.711 16.8168 71.2751 16.9161 68.0495 13.1203C67.2558 15.7817 67.1909 18.6616 67.8637 21.3672C68.5366 24.0727 69.9144 26.4722 71.8092 28.2381C73.7041 30.0041 76.0236 31.0505 78.4513 31.2347C80.8791 31.4188 83.2968 30.7318 85.3746 29.2671C90.0421 25.9771 92.6203 19.0789 97.8554 17.263C100.752 16.2581 103.863 17.0675 106.791 17.944C109.719 18.8206 112.772 19.7678 115.726 19.0216C118.681 18.2753 121.445 15.2027 121.069 11.7302L119.594 10.89Z" fill="#2F2E41"/>
<path d="M183.514 66.6104C183.217 65.8494 182.78 65.173 182.233 64.6288C181.685 64.0847 181.042 63.686 180.347 63.4609C179.652 63.2357 178.923 63.1896 178.211 63.3258C177.499 63.462 176.822 63.7771 176.227 64.249L132.365 52.8574L131.82 65.2617L175.106 72.5588C175.857 73.6634 176.932 74.4107 178.128 74.6591C179.324 74.9075 180.557 74.6397 181.593 73.9064C182.63 73.1732 183.398 72.0255 183.752 70.6808C184.106 69.3361 184.021 67.8878 183.514 66.6104Z" fill="#FFB8B8"/>
<path d="M140.055 53.9967L137.378 66.554C137.302 66.9113 137.16 67.2454 136.963 67.5335C136.765 67.8217 136.516 68.0571 136.232 68.2237C135.949 68.3904 135.637 68.4844 135.32 68.4993C135.002 68.5143 134.685 68.4497 134.391 68.3102L124.08 63.4204C122.502 62.96 121.146 61.7939 120.309 60.1778C119.473 58.5618 119.225 56.6279 119.619 54.8004C120.014 52.973 121.019 51.4013 122.414 50.4302C123.808 49.4591 125.479 49.1679 127.059 49.6205L138.116 50.834C138.433 50.8689 138.739 50.9823 139.015 51.1665C139.29 51.3507 139.528 51.6015 139.712 51.9016C139.896 52.2017 140.022 52.5443 140.081 52.9058C140.14 53.2673 140.132 53.6394 140.055 53.9967V53.9967Z" fill="#9C2DB7"/>
<path d="M178.447 76.466C180.224 76.466 181.663 74.7998 181.663 72.7445C181.663 70.6891 180.224 69.0229 178.447 69.0229C176.671 69.0229 175.231 70.6891 175.231 72.7445C175.231 74.7998 176.671 76.466 178.447 76.466Z" fill="#FAC443"/>
<path d="M38.5042 168.738C37.126 165.808 38.688 162.22 40.4706 159.604C42.2532 156.988 44.4263 154.288 44.3803 150.944C44.316 146.159 39.9285 143.336 36.4184 140.8C33.8192 138.916 31.4212 136.684 29.2744 134.149C28.3733 133.174 27.6283 132.022 27.0737 130.747C26.3524 128.875 26.3708 126.749 26.4167 124.696C26.5699 117.87 26.8608 111.051 27.2896 104.239" stroke="#3F3D56" stroke-width="4" stroke-miterlimit="10"/>
<path d="M20.6234 103.877C20.6747 102.628 20.996 101.414 21.5579 100.346C22.1197 99.278 22.9042 98.39 23.8394 97.7635L25.282 101.07L25.2406 97.0724C26.2273 96.7303 27.2706 96.6674 28.2827 96.8891C29.2947 97.1107 30.246 97.6104 31.0564 98.3461C31.8668 99.0818 32.5127 100.032 32.9398 101.117C33.3668 102.201 33.5625 103.389 33.5103 104.579C33.4299 106.553 32.6751 108.409 31.412 109.739C30.7866 110.398 30.0552 110.908 29.2596 111.239C28.464 111.571 27.6198 111.717 26.7751 111.671C25.9304 111.625 25.1019 111.387 24.3368 110.97C23.5716 110.554 22.8849 109.967 22.3158 109.243C21.7467 108.519 21.3063 107.673 21.0199 106.752C20.7334 105.832 20.6065 104.855 20.6463 103.877H20.6234Z" fill="#57B793"/>
<path d="M32.1228 154.383C32.7979 155.901 33.9034 157.104 35.2539 157.791C36.6044 158.478 38.1178 158.606 39.5405 158.155C40.9632 157.704 42.2088 156.701 43.0684 155.314C43.9281 153.927 44.3495 152.24 44.2622 150.536C44.1749 148.832 43.5841 147.215 42.5889 145.955C41.5936 144.695 40.2543 143.869 38.7955 143.616C37.3367 143.363 35.847 143.698 34.5762 144.564C33.3053 145.431 32.3304 146.776 31.815 148.376L35.8396 152.166L31.4107 150.976C31.4101 152.161 31.6543 153.329 32.1228 154.383Z" fill="#57B793"/>
<path d="M35.3067 139.875C36.1527 139.922 36.9984 139.775 37.7952 139.443C38.5921 139.111 39.3245 138.6 39.9503 137.94C40.5761 137.279 41.083 136.482 41.442 135.595C41.8009 134.707 42.0048 133.746 42.0419 132.767C42.0931 131.599 41.9025 130.435 41.486 129.37C41.0999 128.372 40.5296 127.485 39.8152 126.77C39.1008 126.056 38.2597 125.531 37.3511 125.233L37.3833 128.312L35.9223 124.962C34.2134 124.87 32.5428 125.567 31.278 126.9C30.0132 128.233 29.2577 130.093 29.1779 132.07C29.0981 134.048 29.7004 135.981 30.8524 137.445C32.0043 138.908 33.6116 139.783 35.3205 139.875H35.3067Z" fill="#57B793"/>
<path d="M19.654 127.801C21.3598 127.894 23.0278 127.199 24.2909 125.869C25.554 124.539 26.3087 122.683 26.3892 120.709C26.4696 118.735 25.8691 116.805 24.7197 115.343C23.5703 113.882 21.9663 113.008 20.2604 112.915C19.0546 112.846 17.8567 113.175 16.8055 113.862L17.9449 117.477L15.6018 114.872C14.3445 116.202 13.5943 118.054 13.516 120.023C13.4867 120.713 13.5424 121.404 13.6814 122.075C14.0029 123.652 14.7601 125.064 15.838 126.097C16.9159 127.131 18.2556 127.729 19.654 127.801Z" fill="#57B793"/>
<path opacity="0.1" d="M21.4917 105.844C22.9802 106.036 24.4274 106.573 25.9205 106.679C27.4137 106.785 29.0538 106.371 30.0003 105.026C30.5102 104.303 30.7629 103.388 31.1948 102.601C31.6016 101.866 32.1585 101.258 32.8166 100.831C33.2056 101.772 33.4194 102.797 33.4439 103.84C33.4685 104.883 33.3034 105.92 32.9593 106.884C32.6152 107.848 32.0998 108.718 31.4465 109.437C30.7932 110.156 30.0166 110.708 29.1671 111.057C28.3176 111.406 27.4142 111.545 26.5154 111.464C25.6167 111.383 24.7426 111.084 23.95 110.587C23.1574 110.09 22.464 109.406 21.9146 108.579C21.3653 107.752 20.9723 106.8 20.7612 105.786C21.0093 105.797 21.2528 105.818 21.4917 105.844Z" fill="black"/>
<path opacity="0.1" d="M19.6539 127.801C20.7659 127.867 21.8735 127.597 22.8684 127.018C23.8633 126.439 24.7113 125.572 25.3295 124.5C25.9477 123.428 26.3148 122.189 26.3951 120.904C26.4753 119.619 26.2659 118.332 25.7872 117.168C25.2754 117.568 24.8354 118.079 24.4916 118.673C24.0322 119.476 23.7566 120.401 23.2144 121.14C22.2129 122.506 20.4946 122.953 18.9372 122.868C17.3797 122.783 15.882 122.278 14.3429 122.113C14.1316 122.113 13.911 122.07 13.6951 122.065C14.0142 123.641 14.7686 125.053 15.8439 126.088C16.9192 127.124 18.2567 127.725 19.6539 127.801Z" fill="black"/>
<path opacity="0.1" d="M35.3067 139.875C36.1527 139.922 36.9984 139.775 37.7953 139.443C38.5921 139.111 39.3245 138.6 39.9503 137.94C40.5761 137.279 41.083 136.482 41.442 135.595C41.8009 134.707 42.0048 133.746 42.0419 132.767C42.0931 131.599 41.9025 130.435 41.486 129.37C40.9513 129.774 40.4843 130.288 40.1077 130.885C39.6069 131.704 39.2945 132.645 38.7294 133.399C37.6406 134.803 35.8121 135.297 34.1627 135.25C32.5134 135.202 31.0294 134.755 29.4398 134.617C29.8322 136.085 30.6059 137.377 31.6557 138.318C32.7055 139.259 33.9804 139.803 35.3067 139.875Z" fill="black"/>
<path opacity="0.1" d="M32.1229 154.383C32.4698 155.277 32.9654 156.082 33.5813 156.754C34.1972 157.426 34.9214 157.95 35.7126 158.298C36.5038 158.646 37.3464 158.81 38.1923 158.781C39.0383 158.752 39.871 158.53 40.643 158.129C41.4149 157.727 42.111 157.154 42.6915 156.441C43.2719 155.728 43.7253 154.89 44.0259 153.975C44.3264 153.059 44.4682 152.084 44.4431 151.105C44.418 150.126 44.2266 149.163 43.8796 148.27C43.3503 148.677 42.8739 149.169 42.4646 149.732C41.8536 150.598 41.4493 151.576 40.7371 152.39C39.4186 153.884 37.2914 154.516 35.3986 154.559C34.3046 154.575 33.2108 154.517 32.1229 154.383Z" fill="black"/>
<path d="M48.2258 165.362C48.2258 165.362 43.1399 165.181 41.6054 163.916C40.0709 162.651 33.7951 161.141 33.3954 163.172C32.9957 165.203 25.7459 173.273 31.4934 173.305C37.2408 173.337 44.8444 172.242 46.3743 171.178C47.9042 170.115 48.2258 165.362 48.2258 165.362Z" fill="#656380"/>
<path opacity="0.2" d="M31.3923 172.369C37.1352 172.422 44.7433 171.306 46.2732 170.243C47.4356 169.424 47.9042 166.473 48.0558 165.112H48.2258C48.2258 165.112 47.9042 169.86 46.3881 170.96C44.872 172.061 37.2546 173.13 31.5072 173.087C29.8486 173.087 29.2744 172.385 29.3065 171.375C29.5225 171.976 30.1565 172.359 31.3923 172.369Z" fill="black"/>
</g>
<defs>
<clipPath id="clip0_17_866">
<rect width="380.865" height="193.959" fill="white" transform="translate(-60)"/>
</clipPath>
</defs>
</svg>
