<svg width="609" height="666" viewBox="0 0 609 666" fill="none" xmlns="http://www.w3.org/2000/svg">
<path d="M245.965 -203.335C165.052 -135.776 55.0601 -93.7617 18.5444 5.09618C-18.8496 106.332 5.42169 222.161 53.0386 318.97C97.4159 409.192 188.839 458.539 270.464 517.265C354.498 577.725 431.155 664.426 534.707 665.512C639.416 666.609 736.86 601.537 805.995 522.878C868.102 452.217 861.75 350.459 890.366 260.861C919.96 168.198 1002.8 83.0581 976.352 -10.5226C949.723 -104.734 835.872 -136.47 760.423 -198.865C674.61 -269.831 615.94 -399.728 504.549 -400.696C393.416 -401.662 331.286 -274.573 245.965 -203.335Z" fill="#624A2E"/>
</svg>
