<svg width="340" height="276" viewBox="0 0 340 276" fill="none" xmlns="http://www.w3.org/2000/svg">
<path d="M287.612 260.992C288.787 258.831 287.455 256.184 285.935 254.254C284.415 252.324 282.562 250.331 282.601 247.864C282.656 244.334 286.397 242.251 289.39 240.38C291.607 238.99 293.651 237.343 295.482 235.473C296.25 234.754 296.886 233.904 297.359 232.963C297.974 231.582 297.958 230.013 297.919 228.499C297.788 223.463 297.54 218.432 297.174 213.406" stroke="#3F3D56" stroke-width="4" stroke-miterlimit="10"/>
<path d="M302.859 213.139C302.815 212.218 302.541 211.322 302.062 210.534C301.583 209.746 300.914 209.091 300.117 208.628L298.886 211.068L298.922 208.118C298.08 207.866 297.191 207.82 296.328 207.983C295.465 208.147 294.654 208.515 293.963 209.058C293.272 209.601 292.721 210.302 292.357 211.102C291.992 211.902 291.826 212.779 291.87 213.657C291.939 215.113 292.582 216.483 293.659 217.464C294.193 217.95 294.816 218.326 295.495 218.57C296.173 218.815 296.893 218.923 297.613 218.889C298.334 218.855 299.04 218.68 299.692 218.372C300.345 218.065 300.93 217.632 301.416 217.098C301.901 216.564 302.277 215.94 302.521 215.26C302.765 214.581 302.873 213.86 302.839 213.139H302.859Z" fill="#57B793"/>
<path d="M293.053 250.402C292.478 251.522 291.535 252.409 290.383 252.916C289.232 253.422 287.941 253.517 286.728 253.185C285.515 252.852 284.453 252.112 283.72 251.089C282.987 250.065 282.627 248.821 282.702 247.563C282.776 246.306 283.28 245.113 284.129 244.183C284.977 243.254 286.119 242.645 287.363 242.458C288.607 242.271 289.878 242.518 290.961 243.157C292.045 243.797 292.876 244.789 293.316 245.969L289.884 248.766L293.66 247.888C293.661 248.762 293.453 249.624 293.053 250.402Z" fill="#57B793"/>
<path d="M290.339 239.698C289.617 239.733 288.896 239.624 288.217 239.379C287.537 239.134 286.913 238.757 286.379 238.27C285.845 237.783 285.413 237.195 285.107 236.54C284.801 235.885 284.627 235.176 284.595 234.454C284.552 233.592 284.714 232.733 285.069 231.947C285.399 231.211 285.885 230.557 286.494 230.03C287.103 229.502 287.82 229.115 288.595 228.896L288.568 231.167L289.814 228.695C291.271 228.627 292.695 229.142 293.774 230.125C294.852 231.109 295.497 232.481 295.565 233.94C295.633 235.399 295.119 236.825 294.137 237.905C293.154 238.985 291.784 239.63 290.327 239.698H290.339Z" fill="#57B793"/>
<path d="M303.686 230.79C302.231 230.859 300.809 230.346 299.732 229.365C298.655 228.383 298.011 227.014 297.942 225.557C297.874 224.101 298.386 222.677 299.366 221.599C300.346 220.52 301.714 219.876 303.169 219.807C304.197 219.756 305.218 219.998 306.115 220.505L305.143 223.173L307.141 221.251C308.213 222.232 308.853 223.599 308.92 225.051C308.945 225.56 308.897 226.07 308.779 226.565C308.504 227.729 307.859 228.77 306.94 229.533C306.02 230.295 304.878 230.736 303.686 230.79Z" fill="#57B793"/>
<path opacity="0.1" d="M302.119 214.59C300.849 214.732 299.615 215.128 298.342 215.206C297.069 215.285 295.67 214.979 294.863 213.986C294.428 213.453 294.213 212.778 293.845 212.198C293.498 211.655 293.023 211.207 292.462 210.892C292.13 211.586 291.948 212.342 291.927 213.112C291.906 213.881 292.047 214.646 292.34 215.358C292.634 216.069 293.073 216.711 293.63 217.241C294.187 217.771 294.849 218.178 295.574 218.436C296.298 218.694 297.068 218.796 297.835 218.736C298.601 218.677 299.347 218.456 300.022 218.09C300.698 217.723 301.29 217.218 301.758 216.608C302.226 215.998 302.562 215.296 302.742 214.547C302.53 214.555 302.322 214.571 302.119 214.59Z" fill="black"/>
<path opacity="0.1" d="M303.685 230.79C302.737 230.838 301.793 230.639 300.944 230.212C300.096 229.785 299.373 229.145 298.846 228.354C298.319 227.564 298.006 226.649 297.937 225.701C297.869 224.753 298.047 223.803 298.456 222.945C298.892 223.24 299.267 223.617 299.56 224.055C299.952 224.647 300.187 225.33 300.649 225.875C301.503 226.883 302.969 227.213 304.297 227.15C305.625 227.087 306.902 226.714 308.214 226.593C308.394 226.593 308.582 226.562 308.767 226.558C308.494 227.72 307.851 228.762 306.934 229.526C306.017 230.29 304.877 230.734 303.685 230.79Z" fill="black"/>
<path opacity="0.1" d="M290.339 239.698C289.617 239.732 288.896 239.624 288.217 239.379C287.537 239.134 286.913 238.757 286.379 238.27C285.845 237.783 285.413 237.195 285.107 236.54C284.801 235.885 284.627 235.176 284.595 234.453C284.552 233.592 284.714 232.733 285.069 231.947C285.525 232.246 285.924 232.624 286.245 233.065C286.672 233.669 286.938 234.363 287.42 234.92C288.348 235.956 289.908 236.32 291.314 236.285C292.72 236.25 293.986 235.92 295.341 235.818C295.007 236.901 294.347 237.855 293.452 238.549C292.557 239.243 291.469 239.644 290.339 239.698Z" fill="black"/>
<path opacity="0.1" d="M293.053 250.402C292.758 251.061 292.335 251.655 291.81 252.151C291.285 252.646 290.667 253.033 289.992 253.29C289.318 253.547 288.599 253.668 287.878 253.646C287.157 253.625 286.446 253.461 285.788 253.165C285.13 252.869 284.536 252.446 284.041 251.92C283.547 251.394 283.16 250.776 282.904 250.1C282.647 249.425 282.526 248.706 282.548 247.983C282.569 247.261 282.732 246.55 283.028 245.891C283.48 246.191 283.886 246.555 284.235 246.97C284.756 247.609 285.101 248.331 285.708 248.931C286.832 250.033 288.646 250.5 290.26 250.531C291.193 250.544 292.126 250.5 293.053 250.402Z" fill="black"/>
<path d="M279.322 258.502C279.322 258.502 283.659 258.368 284.968 257.435C286.276 256.501 291.627 255.387 291.968 256.886C292.309 258.384 298.491 264.338 293.59 264.362C288.689 264.385 282.206 263.577 280.901 262.793C279.597 262.008 279.322 258.502 279.322 258.502Z" fill="#656380"/>
<path opacity="0.2" d="M293.676 263.671C288.779 263.711 282.292 262.887 280.987 262.102C279.996 261.498 279.597 259.322 279.467 258.317H279.322C279.322 258.317 279.597 261.82 280.889 262.632C282.182 263.444 288.677 264.232 293.578 264.201C294.993 264.201 295.482 263.683 295.455 262.938C295.271 263.381 294.73 263.664 293.676 263.671Z" fill="black"/>
<path d="M76.0919 252.509C73.2477 247.237 76.4836 240.781 80.1818 236.082C83.88 231.383 88.4087 226.495 88.3107 220.506C88.1697 211.9 79.0496 206.821 71.7629 202.259C66.3559 198.873 61.3681 194.859 56.9036 190.299C55.1133 188.468 53.3778 186.514 52.3358 184.177C50.8314 180.811 50.8706 176.987 50.9685 173.3C51.2819 161.01 51.8878 148.743 52.7863 136.5" stroke="#3F3D56" stroke-width="4" stroke-miterlimit="10"/>
<path d="M39.1903 135.945C39.2975 133.7 39.9665 131.517 41.1356 129.598C42.3047 127.679 43.9366 126.085 45.8815 124.962L48.8823 130.905L48.7922 123.711C51.5184 122.907 54.4294 122.991 57.1048 123.951C59.7802 124.911 62.0817 126.698 63.6768 129.053C65.2719 131.408 66.0782 134.21 65.9792 137.054C65.8802 139.897 64.881 142.636 63.126 144.875C61.371 147.113 58.9509 148.735 56.2152 149.506C53.4795 150.277 50.5697 150.158 47.9061 149.166C45.2424 148.173 42.9627 146.359 41.3961 143.985C39.8294 141.61 39.057 138.799 39.1903 135.957V135.945Z" fill="#57B793"/>
<path d="M62.9867 227.026C64.3344 229.655 66.5118 231.766 69.1806 233.029C71.8494 234.293 74.8602 234.638 77.7453 234.012C80.6303 233.386 83.2281 231.823 85.1349 229.567C87.0418 227.31 88.151 224.487 88.2903 221.534C88.3839 219.678 88.0862 217.823 87.4167 216.09C86.4379 213.548 84.7096 211.364 82.4614 209.829C80.2132 208.294 77.5516 207.48 74.8304 207.496C72.1092 207.511 69.4572 208.356 67.2269 209.917C64.9966 211.478 63.2936 213.682 62.3443 216.235L70.7161 223.052L61.5059 220.907C61.5021 223.036 62.01 225.135 62.9867 227.026Z" fill="#57B793"/>
<path d="M69.5671 200.983C72.8538 201.133 76.0809 200.069 78.6342 197.991C81.1875 195.913 82.8886 192.968 83.4136 189.716C83.9386 186.464 83.2509 183.133 81.4815 180.356C79.712 177.578 76.9843 175.55 73.8177 174.656L73.8882 180.182L70.8717 174.169H70.8364C67.2846 174.003 63.8124 175.257 61.1837 177.654C58.555 180.052 56.9851 183.396 56.8194 186.952C56.6537 190.509 57.9057 193.985 60.3 196.617C62.6944 199.249 66.0349 200.821 69.5867 200.987L69.5671 200.983Z" fill="#57B793"/>
<path d="M37.0805 179.018C39.1557 179.12 41.226 178.737 43.128 177.899C45.03 177.062 46.7116 175.794 48.0401 174.194C49.3686 172.595 50.3076 170.708 50.7831 168.683C51.2585 166.658 51.2573 164.55 50.7796 162.526C50.3019 160.501 49.3608 158.616 48.0305 157.018C46.7002 155.42 45.0171 154.153 43.1142 153.318C41.2113 152.483 39.1405 152.103 37.0655 152.206C34.9904 152.31 32.9677 152.895 31.1572 153.915L33.5077 160.415L28.6538 155.719C27.3563 156.902 26.3043 158.328 25.5581 159.918C24.812 161.508 24.3863 163.229 24.3053 164.984C24.2431 166.226 24.3579 167.47 24.6462 168.679C25.3125 171.523 26.8872 174.071 29.1314 175.937C31.3755 177.803 34.1664 178.885 37.0805 179.018Z" fill="#57B793"/>
<path opacity="0.1" d="M40.8014 139.489C43.8963 139.83 46.905 140.791 50.0077 140.983C53.1104 141.175 56.5226 140.434 58.4853 138.018C59.543 136.715 60.0719 135.068 60.9651 133.648C61.8114 132.325 62.9716 131.232 64.3421 130.467C65.1955 132.168 65.6778 134.031 65.757 135.933C65.8363 137.835 65.5106 139.732 64.8017 141.498C64.0928 143.264 63.0168 144.859 61.6451 146.177C60.2735 147.495 58.6376 148.506 56.8459 149.142C55.0543 149.779 53.1479 150.026 51.2533 149.869C49.3588 149.711 47.5193 149.152 45.8571 148.228C44.1949 147.305 42.7479 146.038 41.6121 144.511C40.4764 142.985 39.6779 141.234 39.2697 139.375C39.7907 139.398 40.3 139.434 40.8014 139.489Z" fill="black"/>
<path opacity="0.1" d="M36.9817 179.007C39.2917 179.113 41.5899 178.62 43.6534 177.575C45.7169 176.531 47.4756 174.969 48.7587 173.043C50.0418 171.117 50.8059 168.892 50.9767 166.583C51.1474 164.274 50.7192 161.96 49.7334 159.865C48.6691 160.582 47.7538 161.498 47.0381 162.564C46.0822 164.008 45.5064 165.675 44.382 167C42.294 169.456 38.729 170.26 35.4931 170.115C32.2572 169.97 29.1349 169.044 25.9146 168.75C25.468 168.711 25.0136 168.679 24.5631 168.667C25.2286 171.508 26.8011 174.055 29.042 175.921C31.283 177.786 34.0704 178.87 36.9817 179.007Z" fill="black"/>
<path opacity="0.1" d="M69.5211 200.686C71.8085 200.794 74.0853 200.312 76.1343 199.289C78.1832 198.265 79.936 196.732 81.2254 194.838C82.5147 192.943 83.2977 190.749 83.4996 188.465C83.7015 186.181 83.3155 183.884 82.3786 181.792C81.2747 182.526 80.3147 183.457 79.5462 184.537C78.5041 186.008 77.8538 187.703 76.6354 189.06C74.375 191.582 70.5749 192.472 67.1471 192.39C63.8289 192.319 60.6322 191.504 57.3336 191.249C58.1502 193.885 59.7584 196.205 61.9391 197.894C64.1198 199.583 66.7673 200.558 69.5211 200.686Z" fill="black"/>
<path opacity="0.1" d="M62.9041 226.738C64.2518 229.368 66.4292 231.479 69.098 232.742C71.7668 234.005 74.7776 234.351 77.6627 233.724C80.5477 233.098 83.1455 231.536 85.0523 229.279C86.9592 227.023 88.0684 224.199 88.2077 221.247C88.3013 219.391 88.0036 217.536 87.3341 215.803C86.2312 216.528 85.2411 217.412 84.3959 218.427C83.1227 219.996 82.2804 221.745 80.8074 223.196C78.0651 225.887 73.6422 227.001 69.705 227.119C67.4326 227.127 65.1616 227 62.9041 226.738Z" fill="black"/>
<path d="M168.933 260.428L117.221 271.018L116.046 270.901L70.6022 266.312V208.652L126.232 199.239L166.582 203.945L166.594 204.2L166.598 204.326L168.933 260.428Z" fill="#6D4D35"/>
<path opacity="0.1" d="M168.933 260.428L117.221 271.019L116.046 270.901V211.79L166.594 204.2L168.933 260.428Z" fill="#D7AF8D"/>
<path opacity="0.05" d="M166.598 204.326L166.583 204.338L116.046 211.79L70.6022 208.652L126.232 199.239L166.583 203.945L166.594 204.2L166.598 204.326Z" fill="black"/>
<path d="M225.738 262.782L174.026 273.372L172.851 273.254L127.407 268.665V211.006L183.036 201.592L223.387 206.299L223.399 206.554L223.403 206.679L225.738 262.782Z" fill="#F3CCAA"/>
<path opacity="0.1" d="M225.738 262.781L174.026 273.372L172.851 273.254V214.144L223.399 206.554L225.738 262.781Z" fill="#79523C"/>
<path opacity="0.05" d="M223.403 206.679L223.387 206.691L172.851 214.144L127.407 211.006L183.036 201.592L223.387 206.299L223.399 206.554L223.403 206.679Z" fill="black"/>
<path d="M190.088 206.299L138.376 216.889L137.201 216.772L91.7571 212.182V154.523L147.386 145.109L187.737 149.816L187.749 150.071L187.753 150.197L190.088 206.299Z" fill="#E1B996"/>
<path opacity="0.1" d="M190.088 206.299L138.376 216.889L137.201 216.772V157.661L187.749 150.071L190.088 206.299Z" fill="#79523C"/>
<path opacity="0.05" d="M187.753 150.197L187.737 150.208L137.201 157.661L91.7571 154.523L147.386 145.109L187.737 149.816L187.749 150.071L187.753 150.197Z" fill="black"/>
<path d="M219.47 208.715L192.482 214.246L191.867 214.183L168.15 211.786V181.694L197.183 176.779L218.243 179.238L218.251 179.372V179.434L219.47 208.715Z" fill="#503D2F"/>
<path opacity="0.1" d="M219.47 208.715L192.482 214.246L191.867 214.183V183.333L218.251 179.372L219.47 208.715Z" fill="#DEB894"/>
<path opacity="0.05" d="M218.251 179.434L218.244 179.442L191.867 183.333L168.15 181.694L197.183 176.779L218.244 179.238L218.251 179.372V179.434Z" fill="black"/>
<path d="M146.995 150.271L120.007 155.798L119.392 155.739L95.6748 153.342V123.25L124.708 118.335L145.769 120.794L145.777 120.928V120.99L146.995 150.271Z" fill="#6E4E37"/>
<path opacity="0.1" d="M146.995 150.271L120.007 155.798L119.392 155.739V124.889L145.776 120.928L146.995 150.271Z" fill="#79523C"/>
<path opacity="0.05" d="M145.777 120.99L145.769 120.998L119.392 124.889L95.6748 123.25L124.708 118.335L145.769 120.794L145.777 120.928V120.99Z" fill="black"/>
<path d="M194.397 149.095L167.409 154.621L166.794 154.562L143.077 152.166V122.073L172.11 117.158L193.171 119.618L193.179 119.751V119.814L194.397 149.095Z" fill="#C8A891"/>
<path opacity="0.1" d="M194.397 149.094L167.409 154.621L166.794 154.562V123.713L193.179 119.751L194.397 149.094Z" fill="#A4765C"/>
<path opacity="0.05" d="M193.179 119.814L193.171 119.822L166.794 123.713L143.077 122.073L172.11 117.158L193.171 119.618L193.179 119.751V119.814Z" fill="black"/>
<path d="M208.501 118.892L181.513 124.419L180.898 124.36L157.181 121.963V91.8706L186.214 86.9558L207.275 89.4152L207.282 89.5485V89.6113L208.501 118.892Z" fill="#6F4E38"/>
<path opacity="0.1" d="M208.501 118.892L181.512 124.419L180.897 124.36V93.5102L207.282 89.5486L208.501 118.892Z" fill="#D7AF8D"/>
<path opacity="0.05" d="M207.282 89.6113L207.274 89.6191L180.898 93.5101L157.181 91.8706L186.214 86.9558L207.274 89.4152L207.282 89.5485V89.6113Z" fill="black"/>
<path d="M226.882 57.3729C226.596 59.9225 224.653 61.9778 223.932 64.4332C222.85 68.1399 224.715 72.1212 227.285 75.0237C229.356 77.33 231.864 79.2019 234.663 80.531C237.461 81.8601 240.496 82.6199 243.59 82.7666C244.499 82.8449 245.415 82.745 246.285 82.4724C247.061 82.1564 247.759 81.6776 248.334 81.0682C250.262 79.1266 251.3 76.4397 251.711 73.7293C252.122 71.019 251.966 68.2615 251.805 65.5276C251.805 64.9618 251.701 64.4008 251.5 63.8723C251.237 63.3697 250.876 62.9254 250.438 62.5662C249.048 61.2877 247.517 60.173 245.874 59.2439C245.169 58.8517 244.413 58.4594 243.962 57.7808C243.653 57.2405 243.452 56.6449 243.371 56.0275L242.865 53.4544C242.776 52.7125 242.523 51.9998 242.125 51.3677C241.236 50.1674 239.531 50.0027 238.039 49.9439L232.554 49.7281C230.85 49.6615 228.609 49.1712 226.944 49.5085C225.377 49.8184 225.906 51.254 226.188 52.5562C226.596 54.1312 226.829 55.7466 226.882 57.3729Z" fill="#ECBCA8"/>
<path d="M261.713 172.205L259.386 197.748C258.778 204.448 258.16 211.174 256.969 217.788C256.577 220.067 256.075 222.334 255.503 224.581C253.913 230.822 251.605 236.921 250.861 243.319C250.838 243.503 250.818 243.711 250.798 243.879C250.646 245.292 250.512 246.719 250.015 248.037C249.623 249.014 249.071 249.904 248.667 250.869C247.884 252.799 247.758 254.933 247.66 257.023C244.837 255.427 241.744 254.364 238.536 253.886C236.969 253.654 235.265 253.493 234.227 252.317C233.052 251.038 233.189 249.081 233.385 247.363C234.001 242.028 234.615 236.696 235.226 231.367C235.43 229.074 235.823 226.802 236.401 224.573C236.613 223.832 236.868 223.102 237.126 222.373C237.483 221.369 237.843 220.365 238.113 219.333C238.488 217.676 238.747 215.994 238.889 214.301C239.52 208.935 240.28 203.581 240.946 198.219L240.981 197.936C241.98 189.809 242.74 181.643 242.521 173.457C242.489 172.245 242.438 171.033 242.36 169.817C242.25 168.055 242.09 167.122 243.535 166.02C245.145 164.804 247.265 163.953 249.106 163.156C250.097 162.725 261.012 158.842 261.25 159.697C261.757 161.513 262.021 163.389 262.034 165.274C262.056 167.589 261.949 169.903 261.713 172.205Z" fill="#31303B"/>
<path opacity="0.1" d="M256.969 217.788C256.577 220.066 256.075 222.334 255.503 224.581C253.913 230.822 251.606 236.921 250.861 243.318C250.838 243.503 250.818 243.711 250.799 243.879C245.933 236.921 241.835 229.437 237.087 222.404C237.444 221.4 237.804 220.396 238.074 219.364C238.464 217.698 238.736 216.005 238.889 214.301C239.52 208.935 240.28 203.581 240.946 198.219L240.981 197.936C241.256 199.074 241.65 200.18 242.156 201.235C245.345 207.723 252.922 211.002 256.628 217.211C256.751 217.404 256.864 217.597 256.969 217.788Z" fill="black"/>
<path d="M217.487 160.748C217.648 165.949 218.479 171.107 219.309 176.245L221.021 186.836C221.957 192.641 222.937 198.56 225.679 203.757C227.732 207.648 230.686 210.967 233.361 214.454C239.935 223.028 244.875 232.744 251.108 241.569C252.922 244.134 255.511 246.911 258.602 246.374C260.632 246.025 262.105 244.331 263.695 243.028C265.576 241.491 267.84 240.365 269.321 238.435C270.802 236.505 271.092 233.305 269.086 231.932C268.4 231.465 267.566 231.289 266.79 230.99C263.683 229.814 261.67 226.77 260.393 223.695C259.116 220.62 258.336 217.321 256.632 214.461C252.926 208.252 245.345 204.973 242.156 198.482C240.37 194.849 240.198 190.637 240.064 186.608L239.716 176.289C239.677 175.159 239.649 173.986 240.107 172.955C241.326 170.209 245.008 169.95 247.994 169.601C251.379 169.205 254.658 168.17 257.658 166.549C259.378 165.62 261.055 164.435 261.967 162.709C262.806 161.14 262.919 159.293 263.017 157.512L264.052 138.806C264.142 137.198 264.22 135.531 263.66 134.025C262.238 130.236 257.458 128.996 253.419 129.177C245.905 129.514 238.971 132.75 231.873 134.939C230.114 135.48 228.347 135.966 226.533 136.331C224.966 136.649 223.007 136.519 221.503 137.029C218.808 137.939 218.874 143.846 218.494 146.294C217.71 151.07 217.373 155.909 217.487 160.748Z" fill="#31303B"/>
<path d="M257.584 247.166C258.246 247.837 258.461 248.818 258.634 249.743C259.591 254.881 260.089 260.093 260.122 265.319C260.079 265.807 260.176 266.297 260.4 266.731C260.588 266.989 260.841 267.192 261.133 267.32C263.049 268.234 265.27 266.959 266.868 265.559C269.826 262.966 272.329 259.483 272.498 255.549C272.541 254.537 272.427 253.513 272.604 252.513C272.862 251.03 273.728 249.74 274.488 248.445C275.788 246.239 276.84 243.894 277.622 241.455C277.912 240.538 278.108 239.384 277.387 238.745C277.135 238.544 276.846 238.394 276.537 238.302L267.879 235.085C267.127 234.807 265.262 239.604 264.968 240.13C264.244 241.412 263.523 242.138 262.069 242.436C260.616 242.734 258.822 242.303 257.435 243.044C255.084 244.295 256.256 245.829 257.584 247.166Z" fill="#31303B"/>
<path d="M244.233 250.128C244.072 249.808 243.848 249.523 243.574 249.292C243.174 249.037 242.719 248.883 242.246 248.841C240.601 248.559 238.65 248.375 237.51 249.602C236.444 250.752 236.629 252.623 235.739 253.917C235.457 254.309 235.073 254.662 234.83 255.094C234.529 255.754 234.394 256.479 234.439 257.204C234.392 259.2 234.345 261.205 234.486 263.197C234.599 264.868 234.877 266.622 235.923 267.932C237.6 270.034 240.625 270.336 243.304 270.469L245.478 270.583C246.076 270.653 246.682 270.597 247.257 270.418C247.613 270.254 247.933 270.02 248.197 269.73C248.461 269.439 248.663 269.099 248.793 268.728C249.925 265.912 248.135 262.88 247.03 260.055C245.757 256.804 245.984 253.199 244.233 250.128Z" fill="#31303B"/>
<path d="M226.255 42.9973C226.227 42.7118 226.269 42.4238 226.376 42.1579C226.694 41.597 227.524 41.7657 228.151 41.9069C230.67 42.5423 233.326 41.9657 235.923 42.1148C238.521 42.2638 241.443 43.5622 241.964 46.1117C243.849 44.7765 245.472 43.1067 246.755 41.1852C247.476 40.1065 248.103 38.871 248.005 37.5766C247.864 35.7095 246.301 34.3131 244.871 33.1286L240.562 29.5984C239.994 29.077 239.339 28.6601 238.626 28.3668C237.631 28.0255 236.542 28.1903 235.492 28.1903C232.358 28.1903 228.997 26.7586 226.204 28.1903C225.029 28.7904 224.155 29.822 223.309 30.8261L219.458 35.3918C219.166 35.6828 218.953 36.0432 218.839 36.4391C218.729 36.9961 219.015 37.5452 219.117 38.1061C219.297 39.1259 218.858 40.2164 219.195 41.197C219.756 42.8208 221.73 43.0523 222.937 43.9858C223.383 44.331 224.088 45.5116 224.625 45.4959C225.569 45.4763 226.227 43.7504 226.255 42.9973Z" fill="#3F3D56"/>
<path d="M232.789 56.4631C239.605 56.4631 245.13 50.9313 245.13 44.1075C245.13 37.2837 239.605 31.752 232.789 31.752C225.974 31.752 220.449 37.2837 220.449 44.1075C220.449 50.9313 225.974 56.4631 232.789 56.4631Z" fill="#FFD3C0"/>
<path d="M235.681 71.1446C235.263 69.947 234.475 68.9134 233.433 68.1929C232.39 67.4724 231.145 67.1023 229.879 67.1359C229.516 67.2053 229.14 67.1572 228.805 66.9986C228.616 66.8538 228.464 66.6654 228.363 66.4495C227.615 65.0972 227.012 63.6693 226.565 62.1898C226.369 61.5347 226.098 60.762 225.436 60.5933C224.904 60.456 224.359 60.8012 224.002 61.2209C223.686 61.6713 223.344 62.1022 222.976 62.5114C221.409 63.8999 218.667 62.633 217.025 63.9078C216.755 64.1156 216.532 64.3824 216.242 64.5746C215.96 64.7467 215.655 64.8787 215.337 64.9668C212.15 66.0047 209.027 67.2266 205.982 68.6264C207.079 75.2317 208.199 81.9626 210.769 88.1404C211.991 91.0822 213.374 93.9651 214.354 96.9972C216.524 103.716 216.618 110.906 216.645 117.97C216.645 122.803 216.645 127.737 215.078 132.311C214.726 133.346 214.295 134.374 214.197 135.448C214.099 136.523 214.42 137.739 215.302 138.382C215.812 138.719 216.397 138.926 217.006 138.983C219.713 139.375 222.439 138.661 225.103 138.041C232.245 136.386 239.532 135.437 246.799 134.511L258.982 132.942C259.856 132.881 260.712 132.659 261.505 132.287C263.734 131.067 263.946 127.71 262.559 125.576C261.897 124.552 260.961 123.713 260.401 122.63C259.84 121.547 259.797 120.026 260.757 119.276C262.716 117.747 262.128 114.911 262.222 112.432C262.483 105.497 262.448 98.5674 262.116 91.6431C262.017 90.2071 261.993 88.7669 262.046 87.3284C262.183 84.8887 262.786 82.5 263.39 80.1269L267.092 65.5356C266.124 64.0058 264.271 63.0331 262.52 62.5938C260.769 62.1544 258.939 62.025 257.212 61.4876C253.686 60.3894 250.52 57.6045 246.826 57.8633C246.546 57.8683 246.27 57.9353 246.019 58.0595C245.189 58.5341 245.318 59.7343 245.267 60.6914C245.149 62.8134 243.59 64.5824 241.874 65.8258C240.159 67.0692 238.192 67.9714 236.613 69.3874C236.339 69.5943 236.113 69.8589 235.952 70.1625C235.791 70.4661 235.699 70.8013 235.681 71.1446Z" fill="#8927A1"/>
<path d="M186.786 84.9868C185.968 85.5188 185.099 85.9669 184.192 86.3243C183.33 86.6655 182.41 86.9362 181.705 87.5324C181.355 87.8357 181.062 88.1982 180.839 88.6032C180.421 89.3449 180.21 90.1852 180.228 91.0364C180.245 91.8876 180.49 92.7185 180.937 93.4425C181.385 94.1665 182.018 94.7571 182.771 95.1526C183.524 95.548 184.369 95.734 185.219 95.691C186.351 95.6322 187.42 95.1732 188.458 94.7222L197.163 90.9292C198.636 90.2898 200.227 89.5446 200.924 88.0933C201.004 87.9574 201.034 87.798 201.01 87.6422C200.943 87.4713 200.814 87.3315 200.65 87.25C198.688 85.9722 196.972 84.3512 195.584 82.4646C195.228 81.9783 194.801 80.8329 194.284 80.5387C192.443 79.515 188.263 84.0297 186.786 84.9868Z" fill="#ECBCA8"/>
<path d="M279.835 81.9077L283.044 85.5791C283.733 86.3636 284.423 87.148 285.05 87.9953C286.592 90.1222 287.829 92.4552 288.724 94.9262C289.422 96.7579 290.002 98.7113 289.759 100.657C289.596 101.654 289.327 102.631 288.956 103.571C288.368 105.378 287.638 107.136 286.773 108.827C286.051 110.111 285.236 111.339 284.333 112.502C281.848 115.799 279.128 118.913 276.196 121.818C275.099 122.905 274.629 124.666 274.163 126.133C273.281 128.843 271.186 130.957 269.16 132.958C268.509 133.647 267.788 134.268 267.009 134.809C265.843 135.563 264.479 135.95 263.092 135.923C262.486 135.927 261.887 135.802 261.333 135.558C259.946 134.899 259.241 133.295 259.096 131.765C258.968 130.375 259.2 128.976 259.77 127.702C261.611 123.619 266.339 121.85 269.681 118.869C271.64 117.123 273.14 114.927 274.621 112.757C275.624 111.402 276.462 109.931 277.117 108.376C277.861 106.38 277.571 104.018 278.225 101.994C278.5 101.135 279.009 100.363 279.287 99.5115C279.565 98.6603 279.659 97.6522 279.138 96.9188C278.748 96.4499 278.249 96.0836 277.685 95.8519C275.55 94.7693 273.16 93.3729 272.753 91.0077C272.589 89.6979 272.931 88.3751 273.708 87.3089C274.481 86.2563 275.386 85.3072 276.4 84.4847C277.328 83.6453 278.899 82.7157 279.835 81.9077Z" fill="#ECBCA8"/>
<path d="M184.725 90.1095C184.161 88.9642 183.452 87.7953 182.308 87.2266C181.751 86.9861 181.151 86.8621 180.545 86.8621C179.939 86.8621 179.339 86.9861 178.782 87.2266C177.673 87.7064 176.635 88.3345 175.695 89.0936L172.929 91.1372C172.302 91.5492 171.748 92.0621 171.288 92.6552C170.849 93.3748 170.559 94.175 170.434 95.0086C170.042 96.9188 169.725 98.884 169.999 100.818C170.438 103.956 172.318 106.67 174.386 109.055C175.679 110.537 177.278 112.036 179.244 112.102C180.094 112.13 181.038 111.793 181.391 111.02C181.514 110.713 181.579 110.386 181.583 110.055C181.795 106.572 180.549 103.171 179.099 99.9979C178.708 99.135 178.284 98.2407 178.316 97.2954C178.304 97.1349 178.345 96.9749 178.433 96.8404C178.558 96.7099 178.724 96.6279 178.903 96.609C180.89 96.2167 184.314 97.7621 185.704 95.5538C186.605 94.0947 185.367 91.4079 184.725 90.1095Z" fill="#ECBCA8"/>
<path d="M225.605 39.1104C225.58 38.8246 225.623 38.537 225.73 38.271C226.047 37.7061 226.878 37.8787 227.505 38.0199C230.024 38.6554 232.68 38.0788 235.277 38.2278C237.874 38.3769 240.793 39.6752 241.318 42.2248C243.2 40.8874 244.824 39.218 246.109 37.2982C246.83 36.2156 247.457 34.9801 247.359 33.6857C247.218 31.8186 245.651 30.4222 244.225 29.2416L239.915 25.7114C239.349 25.1901 238.695 24.7732 237.984 24.4798C236.985 24.1386 235.9 24.3033 234.85 24.3033C231.716 24.3033 228.355 22.8716 225.561 24.3033C224.386 24.9034 223.513 25.935 222.666 26.9391L218.811 31.5048C218.522 31.7965 218.31 32.1567 218.196 32.5521C218.087 33.1091 218.373 33.6582 218.475 34.2191C218.655 35.239 218.216 36.3294 218.553 37.3061C219.113 38.9339 221.088 39.1653 222.294 40.0988C222.741 40.444 223.446 41.6246 223.983 41.6089C224.911 41.5893 225.569 39.8635 225.605 39.1104Z" fill="#3F3D56"/>
<path d="M199.396 72.9684C198.899 73.2917 198.461 73.6992 198.103 74.1725C197.653 74.859 197.559 75.7415 197.171 76.4475C196.34 77.993 194.393 78.546 193.183 79.813C192.987 79.9861 192.85 80.2166 192.791 80.4719C192.784 80.8169 192.899 81.1534 193.116 81.4212L198.969 90.6309C200.928 90.8035 202.785 89.5798 204.736 89.7445C205.46 89.8033 206.209 90.0544 206.906 89.8386C207.404 89.6163 207.872 89.3302 208.297 88.9875C209.472 88.25 211.008 88.1638 211.983 87.1949C212.959 86.2261 213.041 84.8023 213.029 83.4804C213.047 82.3332 212.93 81.1878 212.68 80.0679C211.819 76.5378 209.119 73.8156 207.427 70.6855C206.6 69.1597 206.154 68.2693 204.41 69.3166C202.667 70.3639 201.045 71.7603 199.396 72.9684Z" fill="#8927A1"/>
<path d="M270.464 68.3127C271.564 69.0278 272.557 69.8969 273.41 70.8936C274.3 72.0429 274.805 73.455 275.663 74.6317C276.521 75.8084 277.622 76.6556 278.562 77.7068C279.992 79.2993 280.96 81.237 281.908 83.1629C279.587 86.1863 277.058 89.0435 274.339 91.7137C274.036 92.0708 273.636 92.3324 273.187 92.4669C272.883 92.4996 272.576 92.4561 272.293 92.3404C272.01 92.2247 271.76 92.0404 271.565 91.804C271.142 91.3647 270.844 90.8155 270.441 90.3566C269.49 89.3749 268.223 88.7621 266.864 88.6268C265.517 88.4954 264.16 88.4757 262.81 88.568C262.513 88.6032 262.213 88.5528 261.944 88.4228C261.744 88.2853 261.582 88.099 261.474 87.8816C259.907 85.1829 260.396 81.794 260.957 78.711L262.238 71.6506C262.425 70.3027 262.784 68.9844 263.307 67.7282C263.793 66.6888 264.874 64.9237 266.214 65.2375C267.554 65.5513 269.332 67.4968 270.464 68.3127Z" fill="#8927A1"/>
<path d="M158.747 120.069L131.759 125.595L131.144 125.537L107.427 123.14V93.0473L136.46 88.1326L157.521 90.5919L157.529 90.7253V90.788L158.747 120.069Z" fill="#F9EFEA"/>
<path opacity="0.1" d="M158.747 120.069L131.759 125.595L131.144 125.536V94.6867L157.529 90.7251L158.747 120.069Z" fill="#79523C"/>
<path opacity="0.05" d="M157.529 90.788L157.521 90.7959L131.144 94.6869L107.427 93.0473L136.46 88.1326L157.521 90.5919L157.529 90.7253V90.788Z" fill="black"/>
<path d="M172.851 90.2585L145.863 95.7891L145.248 95.7263L121.531 93.3297V63.237L150.564 58.3223L171.625 60.7816L171.632 60.915V60.9777L172.851 90.2585Z" fill="#E1B996"/>
<path opacity="0.1" d="M172.851 90.2585L145.863 95.7891L145.248 95.7264V64.8767L171.632 60.915L172.851 90.2585Z" fill="#79523C"/>
<path opacity="0.05" d="M171.632 60.9777L171.625 60.9856L145.248 64.8766L121.531 63.237L150.564 58.3223L171.625 60.7816L171.632 60.915V60.9777Z" fill="black"/>
</svg>
