<svg width="24" height="22" viewBox="0 0 24 22" fill="none" xmlns="http://www.w3.org/2000/svg">
<path opacity="0.4" d="M23.6665 15.5968C23.6665 18.8518 21.0531 21.4885 17.7981 21.5002H17.7865H6.22481C2.98148 21.5002 0.333145 18.8752 0.333145 15.6202V15.6085C0.333145 15.6085 0.340145 10.4448 0.349478 7.84783C0.350645 7.36016 0.910645 7.08716 1.29215 7.3905C4.06415 9.58966 9.02131 13.5995 9.08315 13.652C9.91148 14.3158 10.9615 14.6903 12.0348 14.6903C13.1081 14.6903 14.1581 14.3158 14.9865 13.6392C15.0483 13.5983 19.8946 9.70866 22.7087 7.47333C23.0913 7.16883 23.6536 7.44183 23.6548 7.92833C23.6665 10.5055 23.6665 15.5968 23.6665 15.5968Z" fill="#443626"/>
<path d="M23.0554 3.61918C22.0451 1.71518 20.0571 0.499512 17.8684 0.499512H6.22505C4.03639 0.499512 2.04839 1.71518 1.03805 3.61918C0.811719 4.04501 0.919052 4.57585 1.29589 4.87685L9.95839 11.8057C10.5651 12.2957 11.3001 12.5395 12.0351 12.5395C12.0397 12.5395 12.0432 12.5395 12.0467 12.5395C12.0502 12.5395 12.0549 12.5395 12.0584 12.5395C12.7934 12.5395 13.5284 12.2957 14.1351 11.8057L22.7976 4.87685C23.1744 4.57585 23.2817 4.04501 23.0554 3.61918Z" fill="#443626"/>
</svg>
