<svg width="45" height="45" viewBox="0 0 45 45" fill="none" xmlns="http://www.w3.org/2000/svg">
<path d="M33 0H12C5.37258 0 0 5.37258 0 12V33C0 39.6274 5.37258 45 12 45H33C39.6274 45 45 39.6274 45 33V12C45 5.37258 39.6274 0 33 0Z" fill="#624A2E"/>
<path d="M16.1124 24.0732C16.2702 24.3657 16.5702 24.548 16.8966 24.548H21.9784V34.5821C21.9784 35.0888 22.3801 35.5 22.875 35.5C23.3699 35.5 23.7716 35.0888 23.7716 34.5821V24.548H28.8534C29.1809 24.548 29.481 24.3657 29.6376 24.0732C29.7966 23.7807 29.7858 23.4233 29.6125 23.1406L23.6341 13.4283C23.4691 13.1615 23.1834 13 22.875 13C22.5666 13 22.2809 13.1615 22.1159 13.4283L16.1375 23.1406C16.0466 23.2899 16 23.46 16 23.6301C16 23.7819 16.0383 23.9349 16.1124 24.0732Z" fill="white"/>
</svg>
