<svg width="102" height="414" viewBox="0 0 102 414" fill="none" xmlns="http://www.w3.org/2000/svg">
<path d="M276.513 295.78C260.416 338.793 226.961 369.099 193.845 388.431C160.773 407.736 119.843 425.515 93.429 402.653C66.8882 379.682 85.9509 315.955 69.0803 280.445C54.6084 249.984 14.4008 252.391 5.50743 217.592C-4.40813 178.794 2.2919 130.018 20.4734 90.25C39.371 48.916 70.3416 6.42396 104.644 0.754983C138.736 -4.87925 152.793 50.6145 183.497 63.308C209.047 73.8705 245.699 44.0675 264.947 67.0266C284.204 89.9971 272.929 135.741 274.771 172.18C276.886 214.003 291.762 255.032 276.513 295.78Z" fill="#FAF7F2"/>
</svg>
