<svg width="132" height="414" viewBox="0 0 132 414" fill="none" xmlns="http://www.w3.org/2000/svg">
<path d="M124.513 295.78C108.416 338.793 74.9612 369.099 41.8448 388.431C8.77295 407.736 -32.1567 425.515 -58.571 402.653C-85.1118 379.682 -66.049 315.955 -82.9197 280.445C-97.3916 249.984 -137.599 252.392 -146.493 217.593C-156.408 178.794 -149.708 130.018 -131.527 90.2502C-112.629 48.9162 -81.6583 6.42421 -47.3558 0.755227C-13.2635 -4.879 0.793486 50.6147 31.4974 63.3082C57.0468 73.8707 93.6989 44.0678 112.947 67.0268C132.204 89.9974 120.929 135.741 122.771 172.18C124.886 214.003 139.762 255.033 124.513 295.78Z" fill="#FAF7F2"/>
</svg>
